<svg xmlns="http://www.w3.org/2000/svg" x="0px" y="0px" width="100" height="100" viewBox="0 0 48 48">
<path fill="#90caf9" d="M28,9.499c-10.217,0-18.5,8.283-18.5,18.5c0,3.266,0.854,6.33,2.34,8.994l-2.301,8.238	c-0.21,0.75,0.481,1.442,1.232,1.232l8.242-2.3c2.662,1.483,5.724,2.336,8.987,2.336c10.217,0,18.5-8.283,18.5-18.5	S38.217,9.499,28,9.499z"></path><path fill="#18193f" d="M31,33L31,33c-1.105,0-2-0.895-2-2V17c0-1.105,0.895-2,2-2l0,0c1.105,0,2,0.895,2,2v14	C33,32.105,32.105,33,31,33z"></path><path fill="#18193f" d="M24,33L24,33c-1.105,0-2-0.895-2-2v-6c0-1.105,0.895-2,2-2l0,0c1.105,0,2,0.895,2,2v6	C26,32.105,25.105,33,24,33z"></path><path fill="#18193f" d="M17,33L17,33c-1.105,0-2-0.895-2-2V21c0-1.105,0.895-2,2-2l0,0c1.105,0,2,0.895,2,2v10	C19,32.105,18.105,33,17,33z"></path><path fill="none" stroke="#18193f" stroke-linecap="round" stroke-linejoin="bevel" stroke-miterlimit="10" stroke-width="3" d="M36.412,10.281C33.13,7.309,28.776,5.499,24,5.499c-10.217,0-18.5,8.283-18.5,18.5c0,1.2,0.115,2.372,0.335,3.507"></path><path fill="none" stroke="#18193f" stroke-linecap="round" stroke-linejoin="bevel" stroke-miterlimit="10" stroke-width="3" d="M7.84,32.993l-2.301,8.238c-0.21,0.75,0.481,1.442,1.232,1.232l8.242-2.3c2.662,1.483,5.724,2.336,8.987,2.336	c10.217,0,18.5-8.283,18.5-18.5c0-2.669-0.565-5.205-1.582-7.497"></path>
</svg>